<svg xmlns="http://www.w3.org/2000/svg" version="1.1" xmlns:xlink="http://www.w3.org/1999/xlink" viewBox="0 0 700 700" style="overflow: hidden; display: block;" width="700" height="700"><defs><linearGradient id="two-9" x1="350" y1="-350" x2="350" y2="350" spreadMethod="pad" gradientUnits="userSpaceOnUse"><stop offset="0%" stop-color="hsl(1.4, 100%, 67%)" stop-opacity="1"></stop><stop offset="100%" stop-color="hsl(167, 52%, 78%)" stop-opacity="1"></stop></linearGradient></defs><g id="two-0" transform="matrix(1 0 0 1 0 0)" opacity="1"><path transform="matrix(1 0 0 1 350 350)" id="two-217" d="M 232.429988 24.429376 C 229.470877 35.977649 250.664672 42.250543 253.382182 53.858045 C 255.443904 62.664435 255.059762 74.16259 249.049151 80.920974 C 239.671118 91.465717 211.732462 78.982094 207.902066 92.563963 C 200.736188 117.972823 276.967481 129.502219 262.156145 151.355921 C 239.586044 184.657458 174.02311 76.81399 148.312598 107.75541 C 134.077105 124.887172 174.593064 144.92492 183.587198 165.302655 C 191.471357 183.165555 212.01954 206.741238 200.018734 222.143309 C 191.979323 232.461248 173.315496 222.880423 160.405216 220.778839 C 146.90296 218.580892 131.070111 200.114859 120.661678 208.992157 C 98.440072 227.94485 159.096686 285.553976 132.121959 296.750779 C 101.339564 309.528088 103.021416 209.778763 70.436328 216.780729 C 52.508607 220.633083 75.566783 267.330722 57.568117 270.836697 C 38.491979 274.552553 42.850006 222.315594 23.422751 222.852594 C 8.950647 223.252625 10.397325 249.873727 0 259.948321 C -8.007021 267.706804 -19.915156 270.788622 -29.121948 277.076819 C -41.520505 285.544978 -50.707082 310.184194 -64.875541 305.215422 C -84.51313 298.328667 -59.789897 251.265067 -79.217682 243.806955 C -95.177569 237.680131 -107.170012 282.369196 -121.730315 273.410762 C -145.259648 258.934004 -95.431764 213.995645 -109.997529 190.521307 C -114.197288 183.752931 -124.964422 182.43734 -132.914 182.940426 C -153.296071 184.230296 -168.757213 205.46458 -188.750936 209.62915 C -202.46037 212.484741 -224.628071 220.524399 -231.160097 208.137486 C -244.742094 182.381465 -166.114601 156.665465 -183.910688 133.618935 C -206.455441 104.422724 -271.503515 199.34259 -290.383627 167.653064 C -307.821896 138.383616 -202.06625 127.260413 -215.92271 96.134984 C -229.77473 65.019529 -295.098278 128.003606 -318.862672 103.604762 C -327.331015 94.910334 -321.307402 77.514328 -315.235513 67.005376 C -303.983891 47.531573 -279.122274 38.879304 -259.835617 27.309823 C -242.389109 16.844192 -219.314656 14.011249 -204.563554 0 C -198.995523 -5.288763 -190.485013 -13.120722 -193.196051 -20.305724 C -211.52794 -68.890304 -351.958074 -21.724904 -341.606363 -72.610674 C -331.960717 -120.025648 -223.632544 -24.245879 -195.268368 -63.446539 C -189.31253 -71.677795 -201.91182 -83.073224 -206.705532 -92.031232 C -215.258865 -108.014846 -244.972055 -120.647486 -237.8192 -137.304979 C -232.535691 -149.609158 -205.021841 -132.429246 -197.743817 -143.669293 C -189.300488 -156.709014 -222.310813 -179.598268 -210.030362 -189.112187 C -185.617186 -208.025578 -158.924895 -149.030083 -128.659026 -142.890324 C -121.202677 -141.377723 -112.797004 -142.674304 -105.759527 -145.565501 C -99.962094 -147.947253 -92.961282 -151.378986 -90.794103 -157.259999 C -80.758473 -184.493408 -118.290665 -216.153166 -108.38363 -243.433619 C -105.032949 -252.660206 -90.190832 -253.565138 -85.119068 -261.969553 C -72.432183 -282.992977 -95.707952 -333.242867 -71.221069 -335.068784 C -19.976364 -338.889956 -60.658583 -219.220688 -19.769727 -188.096379 C -14.566799 -184.135948 -5.245217 -182.861648 -0.000001 -186.7659 C 43.4814 -219.131073 -17.688231 -349.324448 36.463166 -346.923859 C 72.038402 -345.34677 19.984846 -257.472729 51.013512 -239.999707 C 60.857228 -234.456462 71.681767 -250.107873 82.412607 -253.639925 C 93.347882 -257.239267 108.117874 -269.447661 116.410431 -261.462111 C 138.029898 -240.643039 73.213429 -186.833388 99.373929 -172.120695 C 128.326628 -155.837664 147.690368 -259.773911 174.073028 -239.590969 C 205.262685 -215.730638 110.565197 -171.559387 120.193403 -133.488299 C 121.754485 -127.315594 132.570767 -127.834129 136.057229 -122.50648 C 139.869922 -116.68032 134.36233 -105.720243 140.117646 -101.80143 C 154.840502 -91.77659 175.687736 -108.324888 193.205609 -111.547311 C 225.494259 -117.486828 272.353011 -156.571652 291.043543 -129.580935 C 300.587483 -115.798675 277.038827 -97.563123 264.848974 -86.054649 C 239.110271 -61.754666 167.369671 -71.422619 169.917747 -36.117133 C 170.920047 -22.229517 196.459743 -26.369356 209.693188 -22.039643 C 233.686969 -14.189365 280.956389 -25.166464 282.950768 -0.000001 C 284.41374 18.460808 237.026681 6.490252 232.429988 24.429376 Z " fill="hsl(0, 61%, 70%)" stroke="undefined" stroke-width="1" stroke-opacity="1" fill-opacity="1" visibility="visible" stroke-linecap="butt" stroke-linejoin="miter" stroke-miterlimit="4"></path></g></svg>